<svg id="ѓЊѓCѓ_Ѓ__1" data-name="ѓЊѓCѓ„Ѓ[_1" xmlns="http://www.w3.org/2000/svg" xmlns:xlink="http://www.w3.org/1999/xlink" viewBox="0 0 842 595"><defs><style>.cls-1{fill:#fff;}.cls-2{mask:url(#mask);}.cls-3{fill:url(#radial-gradient);}.cls-4{fill:url(#radial-gradient-2);}.cls-5{fill:url(#radial-gradient-3);}.cls-6{fill:url(#radial-gradient-4);}.cls-7{fill:url(#radial-gradient-5);}.cls-8{fill:url(#radial-gradient-6);}.cls-9{fill:url(#radial-gradient-7);}.cls-10{fill:url(#radial-gradient-8);}.cls-11{fill:url(#radial-gradient-9);}.cls-12{fill:url(#radial-gradient-10);}.cls-13{fill:url(#radial-gradient-11);}.cls-14{fill:url(#radial-gradient-12);}.cls-15{fill:url(#radial-gradient-13);}.cls-16{fill:url(#radial-gradient-14);}.cls-17{fill:url(#radial-gradient-15);}.cls-18{fill:url(#radial-gradient-16);}.cls-19{fill:url(#radial-gradient-17);}.cls-20{fill:url(#radial-gradient-18);}.cls-21{fill:url(#radial-gradient-19);}.cls-22{fill:url(#radial-gradient-20);}.cls-23{fill:url(#radial-gradient-21);}.cls-24{fill:url(#radial-gradient-22);}.cls-25{fill:url(#radial-gradient-23);}.cls-26{fill:url(#radial-gradient-24);}.cls-27{fill:url(#radial-gradient-25);}.cls-28{fill:url(#radial-gradient-26);}.cls-29{fill:url(#radial-gradient-27);}.cls-30{fill:url(#radial-gradient-28);}.cls-31{fill:url(#radial-gradient-29);}.cls-32{fill:url(#radial-gradient-30);}.cls-33{fill:url(#radial-gradient-31);}.cls-34{fill:url(#radial-gradient-32);}.cls-35{fill:url(#radial-gradient-33);}.cls-36{fill:url(#radial-gradient-34);}.cls-37{fill:url(#radial-gradient-35);}.cls-38{fill:url(#radial-gradient-36);}.cls-39{fill:url(#radial-gradient-37);}.cls-40{fill:url(#radial-gradient-38);}.cls-41{fill:url(#radial-gradient-39);}.cls-42{fill:url(#radial-gradient-40);}.cls-43{fill:url(#radial-gradient-41);}.cls-44{fill:url(#radial-gradient-42);}.cls-45{fill:url(#radial-gradient-43);}.cls-46{fill:url(#radial-gradient-44);}.cls-47{fill:url(#radial-gradient-45);}.cls-48{fill:url(#radial-gradient-46);}.cls-49{fill:url(#radial-gradient-47);}.cls-50{fill:url(#radial-gradient-48);}.cls-51{fill:url(#radial-gradient-49);}.cls-52{fill:url(#radial-gradient-50);}.cls-53{fill:url(#radial-gradient-51);}.cls-54{fill:url(#radial-gradient-52);}.cls-55{fill:url(#radial-gradient-53);}.cls-56{fill:url(#radial-gradient-54);}.cls-57{fill:url(#radial-gradient-55);}.cls-58{fill:url(#radial-gradient-56);}.cls-59{fill:url(#radial-gradient-57);}.cls-60{fill:url(#radial-gradient-58);}.cls-61{fill:url(#radial-gradient-59);}.cls-62{fill:url(#radial-gradient-60);}.cls-63{fill:url(#radial-gradient-61);}.cls-64{fill:url(#radial-gradient-62);}.cls-65{fill:url(#radial-gradient-63);}.cls-66{fill:url(#radial-gradient-64);}.cls-67{fill:url(#radial-gradient-65);}.cls-68{fill:url(#radial-gradient-66);}</style><mask id="mask" x="-24.59" y="-30.92" width="889.99" height="639.73" maskUnits="userSpaceOnUse"><rect class="cls-1" width="842" height="595"/></mask><radialGradient id="radial-gradient" cx="12485.37" cy="757.94" r="18.08" gradientTransform="matrix(-1, 0.1, -0.1, -1, 13193.84, -355.36)" gradientUnits="userSpaceOnUse"><stop offset="0" stop-color="#fff"/><stop offset="1" stop-color="#be5b67"/></radialGradient><radialGradient id="radial-gradient-2" cx="2662.32" cy="-4266.6" r="11.81" gradientTransform="matrix(0.7, -0.72, 0.72, 0.7, 1935.43, 4935.17)" xlink:href="#radial-gradient"/><radialGradient id="radial-gradient-3" cx="3278.2" cy="4769.43" r="9.09" gradientTransform="translate(2700.09 -5429.35) rotate(53.63)" xlink:href="#radial-gradient"/><radialGradient id="radial-gradient-4" cx="12301.7" cy="-2212.58" r="8.56" gradientTransform="translate(12886.92 3332.25) rotate(-154.91)" xlink:href="#radial-gradient"/><radialGradient id="radial-gradient-5" cx="12360.48" cy="-2492.6" r="8.56" gradientTransform="translate(12886.92 3332.25) rotate(-154.91)" xlink:href="#radial-gradient"/><radialGradient id="radial-gradient-6" cx="12293.66" cy="-2679.5" r="7.21" gradientTransform="translate(12886.92 3332.25) rotate(-154.91)" xlink:href="#radial-gradient"/><radialGradient id="radial-gradient-7" cx="7213.28" cy="-11768.56" r="11.04" gradientTransform="translate(8121.23 12155.21) rotate(-64.53)" xlink:href="#radial-gradient"/><radialGradient id="radial-gradient-8" cx="9408.46" cy="1943.11" r="8.06" gradientTransform="translate(9801.35 -1610.45) rotate(158.18)" xlink:href="#radial-gradient"/><radialGradient id="radial-gradient-9" cx="-108.08" cy="-2299.32" r="6.74" gradientTransform="matrix(0.59, 0.81, -0.81, 0.59, -1620, 1498.12)" xlink:href="#radial-gradient"/><radialGradient id="radial-gradient-10" cx="10982.72" cy="-10132.05" r="12.34" gradientTransform="translate(12026.28 9408.05) rotate(-98.84)" xlink:href="#radial-gradient"/><radialGradient id="radial-gradient-11" cx="9584.34" cy="2014.75" r="8.58" gradientTransform="translate(9801.35 -1610.45) rotate(158.18)" xlink:href="#radial-gradient"/><radialGradient id="radial-gradient-12" cx="4036.5" cy="436.98" r="13.13" gradientTransform="translate(2200.33 -3373.29) rotate(114.7)" xlink:href="#radial-gradient"/><radialGradient id="radial-gradient-13" cx="11106.13" cy="270.4" r="9.55" gradientTransform="translate(11461.39 266.3) rotate(178.53)" xlink:href="#radial-gradient"/><radialGradient id="radial-gradient-14" cx="13130.75" cy="-6182.02" r="5.07" gradientTransform="translate(12584.89 7833.95) rotate(-123.99)" xlink:href="#radial-gradient"/><radialGradient id="radial-gradient-15" cx="11901.07" cy="-2698.69" r="12.32" gradientTransform="matrix(-0.88, -0.47, 0.47, -0.88, 12575.83, 3271.08)" xlink:href="#radial-gradient"/><radialGradient id="radial-gradient-16" cx="10503.79" cy="592.46" r="21.91" gradientTransform="translate(11115.48 76.8) rotate(177.16)" xlink:href="#radial-gradient"/><radialGradient id="radial-gradient-17" cx="12212.98" cy="1409.09" r="12.33" gradientTransform="matrix(-0.97, 0.26, -0.26, -0.97, 12931.47, -1600.65)" xlink:href="#radial-gradient"/><radialGradient id="radial-gradient-18" cx="3459.77" cy="5027.5" r="9.09" gradientTransform="translate(2700.09 -5429.35) rotate(53.63)" xlink:href="#radial-gradient"/><radialGradient id="radial-gradient-19" cx="11428.89" cy="6097.95" r="16.25" gradientTransform="matrix(-0.39, 0.55, -0.58, -0.38, 8272.07, -3511.47)" xlink:href="#radial-gradient"/><radialGradient id="radial-gradient-20" cx="11086.63" cy="6024.15" r="16.25" gradientTransform="matrix(-0.39, 0.55, -0.58, -0.38, 8272.07, -3511.47)" xlink:href="#radial-gradient"/><radialGradient id="radial-gradient-21" cx="10824.5" cy="6185.29" r="16.25" gradientTransform="matrix(-0.39, 0.55, -0.58, -0.38, 8272.07, -3511.47)" xlink:href="#radial-gradient"/><radialGradient id="radial-gradient-22" cx="21297.41" cy="991.97" r="23.78" gradientTransform="matrix(-0.66, -0.1, 0.08, -0.69, 14437, 3191.7)" xlink:href="#radial-gradient"/><radialGradient id="radial-gradient-23" cx="15641.82" cy="730.9" r="16.25" gradientTransform="matrix(-0.67, 0.07, -0.1, -0.69, 10815.03, -44)" xlink:href="#radial-gradient"/><radialGradient id="radial-gradient-24" cx="-117.9" cy="-2390.16" r="16.25" gradientTransform="matrix(0.65, -0.16, 0.2, 0.66, 757.01, 1892.27)" xlink:href="#radial-gradient"/><radialGradient id="radial-gradient-25" cx="-628.18" cy="384.14" r="20.51" gradientTransform="matrix(0.67, 0.07, -0.05, 0.69, 614.54, 126.17)" xlink:href="#radial-gradient"/><radialGradient id="radial-gradient-26" cx="1714.97" cy="-5765.07" r="16.25" gradientTransform="matrix(0.5, -0.44, 0.48, 0.5, 2104.05, 3870.14)" xlink:href="#radial-gradient"/><radialGradient id="radial-gradient-27" cx="6705.75" cy="14380.39" r="17.86" gradientTransform="matrix(-0.52, 0.42, -0.46, -0.52, 10138.56, 4692.82)" xlink:href="#radial-gradient"/><radialGradient id="radial-gradient-28" cx="-874.99" cy="-5.47" r="31.73" gradientTransform="matrix(0.67, 0.07, -0.05, 0.69, 614.54, 126.17)" xlink:href="#radial-gradient"/><radialGradient id="radial-gradient-29" cx="1573.9" cy="-6042.92" r="17.87" gradientTransform="matrix(0.5, -0.44, 0.48, 0.5, 2104.05, 3870.14)" xlink:href="#radial-gradient"/><radialGradient id="radial-gradient-30" cx="6064.33" cy="12841.67" r="17.87" gradientTransform="matrix(-0.59, 0.31, -0.34, -0.6, 8169.24, 6046.56)" xlink:href="#radial-gradient"/><radialGradient id="radial-gradient-31" cx="12468.33" cy="5624.02" r="26.43" gradientTransform="matrix(-0.58, -0.33, 0.31, -0.62, 5614.98, 7771.45)" xlink:href="#radial-gradient"/><radialGradient id="radial-gradient-32" cx="2618.4" cy="13252.91" r="35.06" gradientTransform="matrix(-0.45, 0.49, -0.53, -0.45, 8252.68, 4920.14)" xlink:href="#radial-gradient"/><radialGradient id="radial-gradient-33" cx="5439.44" cy="12188.83" r="17.87" gradientTransform="matrix(-0.59, 0.31, -0.34, -0.6, 8169.24, 6046.56)" xlink:href="#radial-gradient"/><radialGradient id="radial-gradient-34" cx="11514.2" cy="5771.31" r="26.43" gradientTransform="matrix(-0.58, -0.33, 0.31, -0.62, 5614.98, 7771.45)" xlink:href="#radial-gradient"/><radialGradient id="radial-gradient-35" cx="-5084.58" cy="-5787.28" r="35.06" gradientTransform="matrix(0.67, -0.07, 0.1, 0.69, 4624.2, 4116.16)" xlink:href="#radial-gradient"/><radialGradient id="radial-gradient-36" cx="6292.56" cy="12477.52" r="17.87" gradientTransform="matrix(-0.59, 0.31, -0.34, -0.6, 8169.24, 6046.56)" xlink:href="#radial-gradient"/><radialGradient id="radial-gradient-37" cx="-7660.41" cy="5105.34" r="26.43" gradientTransform="matrix(0.35, 0.57, -0.57, 0.39, 5763.75, 2895.6)" xlink:href="#radial-gradient"/><radialGradient id="radial-gradient-38" cx="9194.84" cy="11198.31" r="35.06" gradientTransform="matrix(-0.66, 0.13, -0.16, -0.67, 7908.51, 6958.3)" xlink:href="#radial-gradient"/><radialGradient id="radial-gradient-39" cx="2396.96" cy="-1502.86" r="26.21" gradientTransform="translate(-2012.11 2172.24) rotate(-4.8)" xlink:href="#radial-gradient"/><radialGradient id="radial-gradient-40" cx="12532.11" cy="633.94" r="14.49" xlink:href="#radial-gradient"/><radialGradient id="radial-gradient-41" cx="12609.02" cy="474.48" r="14.49" xlink:href="#radial-gradient"/><radialGradient id="radial-gradient-42" cx="8944.01" cy="-5562.9" r="24.23" gradientTransform="translate(8890.41 6773.48) rotate(-109.93)" xlink:href="#radial-gradient"/><radialGradient id="radial-gradient-43" cx="9806.22" cy="-2302.23" r="24.23" gradientTransform="translate(9357.81 4996.08) rotate(-139.44)" xlink:href="#radial-gradient"/><radialGradient id="radial-gradient-44" cx="6852.96" cy="5664.1" r="23.05" gradientTransform="translate(5688.16 -6922.91) rotate(87.03)" xlink:href="#radial-gradient"/><radialGradient id="radial-gradient-45" cx="12850.19" cy="533.81" r="10.93" xlink:href="#radial-gradient"/><radialGradient id="radial-gradient-46" cx="6919.54" cy="5759.06" r="10.93" gradientTransform="translate(6838.78 -6367.45) rotate(93.24)" xlink:href="#radial-gradient"/><radialGradient id="radial-gradient-47" cx="1864.57" cy="-1652.88" r="14.49" gradientTransform="translate(-855.18 2309.1) rotate(-18.14)" xlink:href="#radial-gradient"/><radialGradient id="radial-gradient-48" cx="9743.09" cy="-5018.63" r="10.35" gradientTransform="translate(9176.74 6754.42) rotate(-115.51)" xlink:href="#radial-gradient"/><radialGradient id="radial-gradient-49" cx="14817.67" cy="-1662.75" r="23.73" gradientTransform="translate(13809.6 6172.54) rotate(-151.37)" xlink:href="#radial-gradient"/><radialGradient id="radial-gradient-50" cx="16071.01" cy="2062.55" r="17.76" gradientTransform="translate(16067.1 2892.64) rotate(-178.71)" xlink:href="#radial-gradient"/><radialGradient id="radial-gradient-51" cx="9199.91" cy="4107.13" r="10.35" gradientTransform="translate(8113.7 -5641.61) rotate(118.87)" xlink:href="#radial-gradient"/><radialGradient id="radial-gradient-52" cx="12994.33" cy="580.21" r="14.49" gradientTransform="translate(13440.09 1977.79) rotate(-176.39)" xlink:href="#radial-gradient"/><radialGradient id="radial-gradient-53" cx="11856.84" cy="3735" r="10.35" gradientTransform="matrix(-0.78, 0.63, -0.63, -0.78, 12103.29, -4027.67)" xlink:href="#radial-gradient"/><radialGradient id="radial-gradient-54" cx="1732.92" cy="3120.42" r="10.81" gradientTransform="translate(711.21 -2952.72) rotate(36.72)" xlink:href="#radial-gradient"/><radialGradient id="radial-gradient-55" cx="2052.47" cy="-2722.25" r="8.01" gradientTransform="matrix(0.97, -0.24, 0.24, 0.97, -1084.63, 3690.48)" xlink:href="#radial-gradient"/><radialGradient id="radial-gradient-56" cx="7171.97" cy="5612.66" r="23.05" gradientTransform="translate(5688.16 -6922.91) rotate(87.03)" xlink:href="#radial-gradient"/><radialGradient id="radial-gradient-57" cx="12292.87" cy="-1018.16" r="10.35" gradientTransform="matrix(-0.98, -0.21, 0.21, -0.98, 12703.21, 1985.57)" xlink:href="#radial-gradient"/><radialGradient id="radial-gradient-58" cx="16719.07" cy="5692.95" r="23.05" gradientTransform="translate(18245.13 2653.48) rotate(167.91)" xlink:href="#radial-gradient"/><radialGradient id="radial-gradient-59" cx="4062.76" cy="2790.42" r="10.35" gradientTransform="translate(5097.36 -1758.44) rotate(117.81)" xlink:href="#radial-gradient"/><radialGradient id="radial-gradient-60" cx="6452.73" cy="11858.47" r="35.06" gradientTransform="matrix(-0.59, 0.31, -0.35, -0.6, 8797.53, 5563)" xlink:href="#radial-gradient"/><radialGradient id="radial-gradient-61" cx="16545.49" cy="5974.86" r="23.05" gradientTransform="translate(18245.13 2653.48) rotate(167.91)" xlink:href="#radial-gradient"/><radialGradient id="radial-gradient-62" cx="4046.38" cy="2713.4" r="10.35" gradientTransform="translate(5097.36 -1758.44) rotate(117.81)" xlink:href="#radial-gradient"/><radialGradient id="radial-gradient-63" cx="8984.93" cy="5701.32" r="14.28" gradientTransform="translate(8974.04 -6457.8) rotate(109.62)" xlink:href="#radial-gradient"/><radialGradient id="radial-gradient-64" cx="1860.24" cy="2753.73" r="14.28" gradientTransform="translate(-64.62 -3283.11) rotate(24.32)" xlink:href="#radial-gradient"/><radialGradient id="radial-gradient-65" cx="8975.33" cy="5985.9" r="14.28" gradientTransform="translate(8974.04 -6457.8) rotate(109.62)" xlink:href="#radial-gradient"/><radialGradient id="radial-gradient-66" cx="11523.22" cy="3042.08" r="20.85" gradientTransform="translate(11715.02 -3343.72) rotate(148.73)" xlink:href="#radial-gradient"/></defs><g class="cls-2"><path class="cls-3" d="M672.67,103.34c5,.41,19.76,2.86,28.57-2.28,8.24-4.81,14.18-14.35,12.83-16.65-.68-1.16-7.08-1.11-7.08-1.11s3.19-5.57,2.51-6.72c-1.34-2.3-12.57-1.81-20.81,3C679.42,85,672.67,103.34,672.67,103.34Z"/><path class="cls-4" d="M731.86,37.92c-2.65,1.9-11.05,6.92-13.26,13.21-2.06,5.87-1,13.13.66,13.71.83.29,4-2.44,4-2.44s.77,4.11,1.59,4.4c1.64.58,7-4.41,9.1-10.28C736.26,49.91,731.86,37.92,731.86,37.92Z"/><path class="cls-5" d="M814.72,43.9c-1.11-2.25-3.86-9.26-8.35-11.74-4.2-2.32-9.85-2.42-10.5-1.24-.32.59,1.35,3.34,1.35,3.34s-3.22.05-3.55.64c-.64,1.18,2.46,5.9,6.65,8.22C805.05,45.72,814.72,43.9,814.72,43.9Z"/><path class="cls-6" d="M796.64,119.31c1.93,1.37,7.36,5.93,12.19,6,4.51,0,9.23-2.43,9.23-3.69,0-.64-2.61-2.16-2.61-2.16s2.64-1.5,2.64-2.13c0-1.26-4.68-3.77-9.2-3.8C803.81,113.46,796.64,119.31,796.64,119.31Z"/><path class="cls-7" d="M624.65,348c1.93,1.36,7.35,5.92,12.18,5.95,4.52,0,9.24-2.42,9.24-3.69,0-.63-2.61-2.16-2.61-2.16s2.63-1.49,2.64-2.12c0-1.27-4.69-3.78-9.2-3.81C631.82,342.12,624.65,348,624.65,348Z"/><path class="cls-8" d="M607.71,545.48c1.62,1.15,6.2,5,10.27,5,3.81,0,7.78-2,7.79-3.11,0-.54-2.21-1.82-2.21-1.82s2.23-1.26,2.23-1.79c0-1.07-3.95-3.18-7.75-3.21C613.75,540.55,607.71,545.48,607.71,545.48Z"/><path class="cls-9" d="M597.73,567.73C596,570.21,590,577.17,590,583.4c-.08,5.82,3,11.92,4.68,11.94.82,0,2.8-3.35,2.8-3.35s1.91,3.41,2.73,3.42c1.63,0,4.9-6,5-11.83C605.21,577,597.73,567.73,597.73,567.73Z"/><path class="cls-10" d="M338.16,91.14c2.19-.45,8.82-1.25,11.95-4.56,2.92-3.09,4.27-7.91,3.4-8.73-.43-.41-3.17.41-3.17.41s.67-2.78.24-3.19c-.87-.82-5.61.8-8.54,3.89C338.75,82.44,338.16,91.14,338.16,91.14Z"/><path class="cls-11" d="M181.59,59.39c-.81-1.67-2.83-6.88-6.16-8.73-3.1-1.74-7.29-1.83-7.78-1-.24.44,1,2.48,1,2.48s-2.39,0-2.63.47c-.49.87,1.8,4.38,4.91,6.12C174.42,60.71,181.59,59.39,181.59,59.39Z"/><path class="cls-12" d="M318,98.94c-.08,3.41-1.17,13.57,2.68,19.37,3.6,5.42,10.33,9.09,11.85,8.08.77-.51.48-4.86.48-4.86s3.91,2,4.67,1.44c1.52-1,.74-8.64-2.85-14.06C330.76,102.81,318,98.94,318,98.94Z"/><path class="cls-13" d="M147.81,90.53c2.32-.48,9.38-1.33,12.7-4.85,3.11-3.28,4.55-8.41,3.63-9.29-.47-.43-3.38.44-3.38.44s.72-3,.25-3.39c-.92-.87-6,.85-9.07,4.13C148.44,81.27,147.81,90.53,147.81,90.53Z"/><path class="cls-14" d="M117.79,129c2.08-3,9-11.35,9-18.76,0-6.92-3.82-14.13-5.76-14.13-1,0-3.28,4-3.28,4s-2.32-4-3.29-4c-1.94,0-5.73,7.23-5.73,14.15C108.74,118,117.79,129,117.79,129Z"/><path class="cls-15" d="M340.42,287.66c2.6.4,10.3,2.24,15.13-.14,4.52-2.23,8-7,7.38-8.29-.32-.64-3.69-.85-3.69-.85s1.89-2.81,1.57-3.44c-.62-1.27-6.55-1.43-11.07.79C344.65,278.24,340.42,287.66,340.42,287.66Z"/><path class="cls-16" d="M112,400.36c.56,1.28,1.93,5.25,4.38,6.74,2.29,1.39,5.44,1.58,5.82.94.2-.33-.67-1.9-.67-1.9s1.8,0,2-.28c.39-.64-1.23-3.34-3.52-4.73C117.4,399.57,112,400.36,112,400.36Z"/><path class="cls-17" d="M800.24,7.43c2.67,2.12,10.1,9.11,17,9.54,6.49.4,13.47-2.75,13.58-4.57,0-.91-3.59-3.31-3.59-3.31s3.91-1.94,4-2.85c.11-1.81-6.44-5.8-12.92-6.2C811-.41,800.24,7.43,800.24,7.43Z"/><path class="cls-18" d="M569.48,21c6,.78,23.75,4.58,34.7-1.15,10.25-5.35,18-16.55,16.47-19.43-.75-1.44-8.51-1.73-8.51-1.73s4.18-6.56,3.43-8c-1.51-2.85-15.12-2.9-25.36,2.44C578.69-.84,569.48,21,569.48,21Z"/><path class="cls-19" d="M758.45,217.74c3.39-.28,13.6-.3,18.94-4.75,5-4.16,7.92-11.24,6.75-12.64-.58-.7-4.88.05-4.88.05s1.52-4.1.93-4.8c-1.16-1.39-8.66.2-13.65,4.36C760.92,204.64,758.45,217.74,758.45,217.74Z"/><path class="cls-20" d="M714.6,343.14c-1.11-2.26-3.86-9.27-8.35-11.75-4.2-2.31-9.85-2.42-10.5-1.24-.32.59,1.35,3.34,1.35,3.34s-3.22.06-3.55.65c-.64,1.17,2.46,5.9,6.66,8.21C704.93,345,714.6,343.14,714.6,343.14Z"/><path class="cls-21" d="M304.64,436c2.18-2.11,9.23-7.9,10.22-13.88.93-5.6-1.35-12-3-12.25-.83-.14-3.34,2.8-3.34,2.8s-1.44-3.59-2.27-3.73c-1.65-.27-5.87,5-6.8,10.62C298.4,425.88,304.64,436,304.64,436Z"/><path class="cls-22" d="M480,277.17c2.17-2.11,9.22-7.89,10.21-13.88.93-5.6-1.35-12-3-12.25-.83-.13-3.34,2.8-3.34,2.8s-1.44-3.59-2.27-3.73c-1.65-.27-5.87,5-6.8,10.63C473.75,267,480,277.17,480,277.17Z"/><path class="cls-23" d="M487.87,73.36c2.18-2.1,9.23-7.89,10.22-13.88.93-5.6-1.35-12-3-12.24-.83-.14-3.34,2.8-3.34,2.8s-1.44-3.6-2.27-3.74c-1.65-.26-5.87,5-6.8,10.63C481.63,63.23,487.87,73.36,487.87,73.36Z"/><path class="cls-24" d="M416.88,335.47c4.18,1.47,16.37,6.92,24.86,4.3,7.94-2.45,14.79-9.6,14.06-11.95-.36-1.18-5.85-2.55-5.85-2.55s3.76-4.24,3.4-5.41c-.72-2.34-10.42-4.4-18.36-2C426.06,320.67,416.88,335.47,416.88,335.47Z"/><path class="cls-25" d="M324.47,563c3,.23,12,1.7,17.17-1.52,4.82-3,8.09-8.93,7.2-10.35-.45-.72-4.31-.66-4.31-.66s1.74-3.46,1.29-4.17c-.88-1.42-7.65-1.07-12.46,1.93C327.94,551.65,324.47,563,324.47,563Z"/><path class="cls-26" d="M223.82,313.27c-3,.19-12.14,0-16.79,3.9-4.35,3.65-6.76,10-5.68,11.26.54.64,4.36.05,4.36.05s-1.24,3.66-.7,4.31c1.08,1.27,7.72,0,12.07-3.65C222,325,223.82,313.27,223.82,313.27Z"/><path class="cls-27" d="M196.19,340c-3.67-1.09-14.39-5.29-21.6-2.69-6.74,2.44-12.35,8.89-11.63,10.88.36,1,5.15,1.95,5.15,1.95s-3.07,3.81-2.71,4.81c.72,2,9.16,3.36,15.9.93C188.88,353.11,196.19,340,196.19,340Z"/><path class="cls-28" d="M234,200.14c-2.61,1.53-10.83,5.49-13.21,11.08-2.22,5.22-1.51,11.95,0,12.61.77.33,3.91-1.93,3.91-1.93s.55,3.83,1.32,4.16c1.54.65,6.89-3.51,9.12-8.72C237.69,211.46,234,200.14,234,200.14Z"/><path class="cls-29" d="M77,30.46c2.94-1.58,12.13-5.6,15-11.64C94.6,13.17,94.09,5.75,92.42,5c-.84-.39-4.38,2-4.38,2s-.45-4.24-1.28-4.63c-1.67-.78-7.71,3.57-10.37,9.21C73.4,17.87,77,30.46,77,30.46Z"/><path class="cls-30" d="M58.91,49.27c-5.67-1.69-22.26-8.18-33.41-4.15-10.43,3.77-19.11,13.74-18,16.82.56,1.55,8,3,8,3s-4.74,5.88-4.18,7.42c1.11,3.08,14.17,5.2,24.59,1.44C47.6,69.59,58.91,49.27,58.91,49.27Z"/><path class="cls-31" d="M31.21,120.72c-2.87,1.69-11.91,6-14.52,12.18-2.44,5.75-1.66,13.15,0,13.87.86.36,4.3-2.12,4.3-2.12s.61,4.21,1.46,4.57c1.69.72,7.57-3.85,10-9.59C35.25,133.17,31.21,120.72,31.21,120.72Z"/><path class="cls-32" d="M152.89,195.94c3.19-1,13-3.06,17-8.41,3.73-5,4.72-12.38,3.24-13.49-.75-.55-4.68,1.05-4.68,1.05s.4-4.24-.34-4.79c-1.47-1.1-8.26,2-12,6.95C151.9,182.88,152.89,195.94,152.89,195.94Z"/><path class="cls-33" d="M93,211.64c3.77,3.16,14.33,13.58,24.18,14.17,9.22.55,19.14-4.22,19.3-6.95.08-1.37-5.09-4.93-5.09-4.93s5.56-2.94,5.65-4.3c.16-2.72-9.13-8.64-18.34-9.2C108.28,199.82,93,211.64,93,211.64Z"/><path class="cls-34" d="M57.38,302.8c5.23-3.92,21.9-14.37,25.66-26.92,3.52-11.74.38-26-3.09-27-1.74-.52-7.92,5.08-7.92,5.08s-2.11-8.09-3.84-8.61c-3.46-1-13.93,9.16-17.46,20.88C46.78,279.4,57.38,302.8,57.38,302.8Z"/><path class="cls-35" d="M748.06,396.78c3.19-1,13-3.06,17-8.41,3.74-5,4.72-12.38,3.24-13.48-.75-.55-4.68,1.05-4.68,1.05s.4-4.24-.34-4.79c-1.47-1.1-8.26,2-12,7C747.07,383.73,748.06,396.78,748.06,396.78Z"/><path class="cls-36" d="M695.44,433.72c3.78,3.16,14.34,13.58,24.19,14.17,9.22.55,19.14-4.22,19.3-6.95.08-1.37-5.09-4.94-5.09-4.94s5.56-2.94,5.65-4.3c.15-2.72-9.13-8.63-18.35-9.19C710.77,421.89,695.44,433.72,695.44,433.72Z"/><path class="cls-37" d="M707.74,464c-6.51-.56-25.91-3.85-37.07,3-10.44,6.42-17.58,19.16-15.68,22.25,1,1.54,9.29,1.48,9.29,1.48s-3.81,7.43-2.86,9c1.9,3.08,16.49,2.44,26.93-4C700.08,488.5,707.74,464,707.74,464Z"/><path class="cls-38" d="M142.2,485.16c3.19-1,13-3.06,17-8.41,3.74-5,4.72-12.38,3.24-13.48-.75-.56-4.68,1-4.68,1s.4-4.23-.34-4.79c-1.47-1.09-8.26,2-12,7C141.21,472.11,142.2,485.16,142.2,485.16Z"/><path class="cls-39" d="M156.11,541.45c-1.79-4.58-6-18.8-14.37-24.06-7.82-4.93-18.81-5.52-20.27-3.21-.72,1.16,2.09,6.78,2.09,6.78s-6.29-.1-7,1c-1.45,2.31,3.84,12,11.65,16.89C137,544.43,156.11,541.45,156.11,541.45Z"/><path class="cls-40" d="M66.86,594.54c6.53,0,26.15,1.46,36.63-6.4,9.81-7.35,15.75-20.69,13.57-23.59-1.09-1.45-9.38-.62-9.38-.62s3.1-7.76,2-9.21c-2.17-2.88-16.65-.9-26.45,6.43C72.23,569.43,66.86,594.54,66.86,594.54Z"/><path class="cls-41" d="M280.47,455.1c-7.21-.69-28.59-4.52-41.45,2.78-12,6.82-20.81,20.54-18.9,23.91,1,1.69,10.24,1.73,10.24,1.73s-4.72,8-3.77,9.69c1.92,3.36,18.2,2.86,30.23-3.94C270.35,481.58,280.47,455.1,280.47,455.1Z"/><path class="cls-42" d="M642.11,228.62c4,.33,15.84,2.3,22.9-1.83,6.6-3.85,11.36-11.5,10.28-13.34-.54-.93-5.68-.89-5.68-.89s2.56-4.46,2-5.39c-1.08-1.84-10.08-1.45-16.68,2.4C647.52,213.91,642.11,228.62,642.11,228.62Z"/><path class="cls-43" d="M580.88,394.73c4,.33,15.83,2.3,22.89-1.83,6.61-3.85,11.37-11.49,10.28-13.34-.54-.93-5.67-.89-5.67-.89s2.56-4.46,2-5.38c-1.09-1.84-10.08-1.46-16.69,2.39C586.29,380,580.88,394.73,580.88,394.73Z"/><path class="cls-44" d="M587.64,239.59c1.13,6.6,2.87,26.6,12.49,36.31,9,9.09,23.35,13.62,25.9,11.1,1.28-1.27-.93-9.56-.93-9.56s8.29,2.28,9.56,1c2.54-2.51-1.84-16.93-10.82-26C613.72,242.22,587.64,239.59,587.64,239.59Z"/><path class="cls-45" d="M378.35,362c4.23,5.19,15.6,21.73,28.76,25.45,12.3,3.48,27,.35,28-3.1.49-1.73-5.52-7.86-5.52-7.86s8.34-2.1,8.83-3.82c1-3.44-9.94-13.83-22.24-17.32C402.34,351.45,378.35,362,378.35,362Z"/><path class="cls-46" d="M402.19,241.27c.81-6.32,4.77-25-1.28-36.52-5.66-10.77-17.47-18.87-20.49-17.28-1.51.79-1.81,9-1.81,9s-6.9-4.39-8.41-3.59c-3,1.59-3,15.92,2.62,26.68C379.2,231.63,402.19,241.27,402.19,241.27Z"/><path class="cls-47" d="M339.13,356.24c3,.25,11.95,1.73,17.28-1.38,5-2.91,8.57-8.67,7.76-10.07-.41-.7-4.29-.67-4.29-.67s1.93-3.36,1.52-4.06c-.81-1.39-7.6-1.1-12.58,1.8C343.22,345.14,339.13,356.24,339.13,356.24Z"/><path class="cls-48" d="M703.35,228.47c.71-2.93,3.54-11.54,1.27-17.28-2.11-5.37-7.26-9.79-8.77-9.2-.75.3-1.31,4.13-1.31,4.13s-3-2.42-3.78-2.12c-1.5.59-2.25,7.35-.14,12.71C693,222.75,703.35,228.47,703.35,228.47Z"/><path class="cls-49" d="M415.63,143.77c-4,.56-16,1.22-21.94,6.79-5.6,5.21-8.58,13.7-7.12,15.27.73.79,5.73-.37,5.73-.37s-1.52,4.91-.79,5.69c1.46,1.56,10.16-.78,15.76-6C413.57,159.31,415.63,143.77,415.63,143.77Z"/><path class="cls-50" d="M439.94,114.44c.75,2.76,2.32,11.19,6.81,14.92,4.2,3.49,10.49,4.81,11.47,3.64.49-.6-.79-4-.79-4s3.61.63,4.1,0c1-1.17-1.48-7.12-5.67-10.61C451.13,114.48,439.94,114.44,439.94,114.44Z"/><path class="cls-51" d="M-24.59,530.74c5.1,4.12,19.34,17.67,32.7,18.57,12.49.85,26-5.13,26.19-8.63.12-1.76-6.87-6.42-6.87-6.42s7.56-3.7,7.68-5.44c.23-3.49-12.32-11.24-24.8-12.09C-3.74,515.78-24.59,530.74-24.59,530.74Z"/><path class="cls-52" d="M24.48,477.89c4.81,1,18.94,5.1,28.12,1.1,8.6-3.72,15.5-12.33,14.46-14.74-.53-1.21-6.78-1.9-6.78-1.9s3.76-5.06,3.24-6.27c-1.05-2.4-12.06-3.23-20.65.49C33.2,460.78,24.48,477.89,24.48,477.89Z"/><path class="cls-53" d="M74.14,445.35c1.8-2.22,7.74-8.41,8.15-14.23.4-5.45-2.19-11.33-3.71-11.44-.77-.06-2.81,3-2.81,3s-1.6-3.31-2.36-3.36c-1.53-.11-4.92,5.35-5.32,10.79C67.65,436.23,74.14,445.35,74.14,445.35Z"/><path class="cls-54" d="M490.43,589.33c3.89,1,15.27,4.78,22.89,1.83,7.13-2.76,13-9.55,12.27-11.55-.39-1-5.46-1.77-5.46-1.77s3.23-4,2.84-5c-.77-2-9.72-3-16.85-.29C498.1,575.66,490.43,589.33,490.43,589.33Z"/><path class="cls-55" d="M533.81,546.9c2.5-1.37,10.33-4.87,12.91-10.11,2.41-4.89,2.23-11.32.86-12-.69-.34-3.73,1.71-3.73,1.71s-.23-3.67-.92-4c-1.37-.67-6.57,3.11-9,8C531.23,536,533.81,546.9,533.81,546.9Z"/><path class="cls-56" d="M249,587c-2-2.19-7.59-9.21-13.56-10.48-5.57-1.18-12,.66-12.36,2.22-.17.79,2.69,3.34,2.69,3.34s-3.65,1.18-3.82,2c-.33,1.56,4.84,5.86,10.41,7C238.62,592.44,249,587,249,587Z"/><path class="cls-57" d="M266.06,549.71c-2.21.14-8.84,0-12.37,2.83-3.3,2.63-5.29,7.18-4.55,8.11.37.47,3.17,0,3.17,0s-1,2.64-.67,3.11c.74.92,5.62,0,8.92-2.64C264.28,558.18,266.06,549.71,266.06,549.71Z"/><path class="cls-58" d="M470.09,557.2c.8-6.32,4.77-25-1.29-36.52-5.66-10.77-17.46-18.87-20.48-17.29-1.52.8-1.81,9-1.81,9s-6.91-4.38-8.42-3.59c-3,1.59-3,15.92,2.62,26.69C447.09,547.56,470.09,557.2,470.09,557.2Z"/><path class="cls-59" d="M448.82,465.89c2.65,1.08,10.3,4.94,16,3.63,5.32-1.22,10.19-5.41,9.85-6.9-.18-.75-3.68-1.82-3.68-1.82s2.69-2.49,2.52-3.24c-.35-1.48-6.56-3.13-11.88-1.92C455.64,457,448.82,465.89,448.82,465.89Z"/><path class="cls-60" d="M679,608.81c6.37-.21,25.45.74,35.85-7.06,9.74-7.29,15.86-20.24,13.82-23-1-1.38-9.13-.37-9.13-.37s3.23-7.52,2.21-8.88c-2-2.72-16.2-.46-25.93,6.82C684.87,584.57,679,608.81,679,608.81Z"/><path class="cls-61" d="M733.63,547.68c1.76-2.26,7.58-8.55,7.89-14.38.29-5.45-2.4-11.29-3.93-11.37-.77,0-2.75,3-2.75,3s-1.66-3.27-2.42-3.32c-1.53-.07-4.83,5.45-5.12,10.89C727,538.68,733.63,547.68,733.63,547.68Z"/><path class="cls-62" d="M824.84,520.76c6.23-2,25.43-6.27,33.15-16.86,7.22-9.9,9-24.39,6.06-26.53-1.47-1.07-9.15,2.16-9.15,2.16s.7-8.33-.76-9.4c-2.93-2.12-16.19,4-23.41,13.9C822.62,495.17,824.84,520.76,824.84,520.76Z"/><path class="cls-63" d="M789.68,296.77c6.37-.22,25.45.74,35.86-7.06,9.73-7.3,15.86-20.24,13.81-23-1-1.37-9.13-.37-9.13-.37s3.24-7.51,2.21-8.88c-2-2.71-16.2-.46-25.93,6.82C795.55,272.53,789.68,296.77,789.68,296.77Z"/><path class="cls-64" d="M809.4,569.12c1.76-2.26,7.58-8.55,7.89-14.38.29-5.45-2.4-11.29-3.93-11.37-.76,0-2.75,3-2.75,3s-1.66-3.28-2.42-3.32c-1.52-.07-4.82,5.45-5.12,10.89C802.75,560.12,809.4,569.12,809.4,569.12Z"/><path class="cls-65" d="M589.49,109.63c2-3.42,8.68-13.16,8-21.18-.67-7.51-5.5-15-7.6-14.76-1.05.1-3.17,4.69-3.17,4.69s-2.9-4.15-3.95-4c-2.1.19-5.52,8.38-4.85,15.88C578.63,98.65,589.49,109.63,589.49,109.63Z"/><path class="cls-66" d="M515.37-8.78C512.11-11,503-18.51,494.9-18.45c-7.53.06-15.35,4.26-15.33,6.37,0,1.06,4.42,3.54,4.42,3.54S479.62-6,479.62-4.93c0,2.11,7.91,6.19,15.43,6.14C503.53,1.14,515.37-8.78,515.37-8.78Z"/><path class="cls-67" d="M324.67,5c2-3.42,8.68-13.16,7.95-21.19-.67-7.5-5.5-14.94-7.6-14.75-1.06.09-3.17,4.69-3.17,4.69s-2.9-4.15-4-4.06c-2.1.2-5.52,8.39-4.85,15.89C313.81-5.95,324.67,5,324.67,5Z"/><path class="cls-68" d="M272.47,62c5.38-2.08,22-6.93,28.53-16.69,6.15-9.12,7.54-22,5-23.73-1.28-.86-7.91,2.41-7.91,2.41s.53-7.39-.75-8.24c-2.55-1.72-14,4.41-20.13,13.53C270.28,39.51,272.47,62,272.47,62Z"/></g></svg>